<mxfile host="app.diagrams.net" modified="2023-10-02T14:57:07.392Z" agent="Mozilla/5.0 (Windows NT 10.0; Win64; x64) AppleWebKit/537.36 (KHTML, like Gecko) Chrome/117.0.0.0 Safari/537.36" etag="MSHSKmHo2TeWznicKRc6" version="22.0.0" type="github">
  <diagram name="Page-1" id="7FCSNMGMTQ9jFA4tash9">
    <mxGraphModel dx="1434" dy="711" grid="1" gridSize="10" guides="1" tooltips="1" connect="1" arrows="1" fold="1" page="1" pageScale="1" pageWidth="850" pageHeight="1100" math="0" shadow="0">
      <root>
        <mxCell id="0" />
        <mxCell id="1" parent="0" />
        <mxCell id="4qr4M3B_KyPkDofaE57d-9" style="edgeStyle=orthogonalEdgeStyle;rounded=0;orthogonalLoop=1;jettySize=auto;html=1;entryX=0;entryY=0.5;entryDx=0;entryDy=0;" edge="1" parent="1" source="4qr4M3B_KyPkDofaE57d-1" target="4qr4M3B_KyPkDofaE57d-2">
          <mxGeometry relative="1" as="geometry" />
        </mxCell>
        <mxCell id="4qr4M3B_KyPkDofaE57d-1" value="git&amp;nbsp;" style="shape=cylinder3;whiteSpace=wrap;html=1;boundedLbl=1;backgroundOutline=1;size=15;" vertex="1" parent="1">
          <mxGeometry x="30" y="150" width="60" height="80" as="geometry" />
        </mxCell>
        <mxCell id="4qr4M3B_KyPkDofaE57d-10" style="edgeStyle=orthogonalEdgeStyle;rounded=0;orthogonalLoop=1;jettySize=auto;html=1;exitX=1;exitY=0.5;exitDx=0;exitDy=0;entryX=0;entryY=0.5;entryDx=0;entryDy=0;" edge="1" parent="1" source="4qr4M3B_KyPkDofaE57d-2" target="4qr4M3B_KyPkDofaE57d-3">
          <mxGeometry relative="1" as="geometry" />
        </mxCell>
        <mxCell id="4qr4M3B_KyPkDofaE57d-2" value="testing tool" style="shape=step;perimeter=stepPerimeter;whiteSpace=wrap;html=1;fixedSize=1;" vertex="1" parent="1">
          <mxGeometry x="210" y="150" width="120" height="80" as="geometry" />
        </mxCell>
        <mxCell id="4qr4M3B_KyPkDofaE57d-3" value="build(artifact)" style="shape=step;perimeter=stepPerimeter;whiteSpace=wrap;html=1;fixedSize=1;" vertex="1" parent="1">
          <mxGeometry x="430" y="150" width="120" height="80" as="geometry" />
        </mxCell>
        <mxCell id="4qr4M3B_KyPkDofaE57d-12" style="edgeStyle=orthogonalEdgeStyle;rounded=0;orthogonalLoop=1;jettySize=auto;html=1;exitX=0.55;exitY=0.95;exitDx=0;exitDy=0;exitPerimeter=0;entryX=0.5;entryY=0;entryDx=0;entryDy=0;" edge="1" parent="1" source="4qr4M3B_KyPkDofaE57d-5" target="4qr4M3B_KyPkDofaE57d-7">
          <mxGeometry relative="1" as="geometry" />
        </mxCell>
        <mxCell id="4qr4M3B_KyPkDofaE57d-31" style="edgeStyle=orthogonalEdgeStyle;rounded=0;orthogonalLoop=1;jettySize=auto;html=1;exitX=0.55;exitY=0.95;exitDx=0;exitDy=0;exitPerimeter=0;" edge="1" parent="1" source="4qr4M3B_KyPkDofaE57d-5" target="4qr4M3B_KyPkDofaE57d-17">
          <mxGeometry relative="1" as="geometry" />
        </mxCell>
        <mxCell id="4qr4M3B_KyPkDofaE57d-5" value="remote repo(nexus)" style="ellipse;shape=cloud;whiteSpace=wrap;html=1;" vertex="1" parent="1">
          <mxGeometry x="670" y="150" width="160" height="80" as="geometry" />
        </mxCell>
        <mxCell id="4qr4M3B_KyPkDofaE57d-15" style="edgeStyle=orthogonalEdgeStyle;rounded=0;orthogonalLoop=1;jettySize=auto;html=1;" edge="1" parent="1" source="4qr4M3B_KyPkDofaE57d-7" target="4qr4M3B_KyPkDofaE57d-13">
          <mxGeometry relative="1" as="geometry" />
        </mxCell>
        <mxCell id="4qr4M3B_KyPkDofaE57d-7" value="deployment on tomcat server" style="shape=loopLimit;whiteSpace=wrap;html=1;" vertex="1" parent="1">
          <mxGeometry x="520" y="380" width="100" height="80" as="geometry" />
        </mxCell>
        <mxCell id="4qr4M3B_KyPkDofaE57d-11" style="edgeStyle=orthogonalEdgeStyle;rounded=0;orthogonalLoop=1;jettySize=auto;html=1;exitX=1;exitY=0.5;exitDx=0;exitDy=0;entryX=0.16;entryY=0.55;entryDx=0;entryDy=0;entryPerimeter=0;" edge="1" parent="1" source="4qr4M3B_KyPkDofaE57d-3" target="4qr4M3B_KyPkDofaE57d-5">
          <mxGeometry relative="1" as="geometry" />
        </mxCell>
        <mxCell id="4qr4M3B_KyPkDofaE57d-13" value="Actor" style="shape=umlActor;verticalLabelPosition=bottom;verticalAlign=top;html=1;outlineConnect=0;" vertex="1" parent="1">
          <mxGeometry x="60" y="390" width="30" height="60" as="geometry" />
        </mxCell>
        <mxCell id="4qr4M3B_KyPkDofaE57d-16" value="email notification" style="text;html=1;strokeColor=none;fillColor=none;align=center;verticalAlign=middle;whiteSpace=wrap;rounded=0;" vertex="1" parent="1">
          <mxGeometry x="280" y="390" width="100" height="30" as="geometry" />
        </mxCell>
        <mxCell id="4qr4M3B_KyPkDofaE57d-33" style="edgeStyle=orthogonalEdgeStyle;rounded=0;orthogonalLoop=1;jettySize=auto;html=1;exitX=0.5;exitY=1;exitDx=0;exitDy=0;" edge="1" parent="1" source="4qr4M3B_KyPkDofaE57d-17" target="4qr4M3B_KyPkDofaE57d-18">
          <mxGeometry relative="1" as="geometry" />
        </mxCell>
        <mxCell id="4qr4M3B_KyPkDofaE57d-17" value="image builder" style="shape=parallelogram;perimeter=parallelogramPerimeter;whiteSpace=wrap;html=1;fixedSize=1;" vertex="1" parent="1">
          <mxGeometry x="700" y="390" width="120" height="60" as="geometry" />
        </mxCell>
        <mxCell id="4qr4M3B_KyPkDofaE57d-34" style="edgeStyle=orthogonalEdgeStyle;rounded=0;orthogonalLoop=1;jettySize=auto;html=1;exitX=0;exitY=0.5;exitDx=0;exitDy=0;exitPerimeter=0;entryX=1;entryY=0.5;entryDx=0;entryDy=0;" edge="1" parent="1" source="4qr4M3B_KyPkDofaE57d-18" target="4qr4M3B_KyPkDofaE57d-19">
          <mxGeometry relative="1" as="geometry" />
        </mxCell>
        <mxCell id="4qr4M3B_KyPkDofaE57d-18" value="docker hub" style="shape=cylinder3;whiteSpace=wrap;html=1;boundedLbl=1;backgroundOutline=1;size=15;" vertex="1" parent="1">
          <mxGeometry x="720" y="600" width="60" height="80" as="geometry" />
        </mxCell>
        <mxCell id="4qr4M3B_KyPkDofaE57d-28" style="edgeStyle=orthogonalEdgeStyle;rounded=0;orthogonalLoop=1;jettySize=auto;html=1;exitX=0;exitY=0.5;exitDx=0;exitDy=0;" edge="1" parent="1" source="4qr4M3B_KyPkDofaE57d-19" target="4qr4M3B_KyPkDofaE57d-22">
          <mxGeometry relative="1" as="geometry" />
        </mxCell>
        <mxCell id="4qr4M3B_KyPkDofaE57d-19" value="" style="swimlane;startSize=0;" vertex="1" parent="1">
          <mxGeometry x="460" y="590" width="160" height="80" as="geometry" />
        </mxCell>
        <mxCell id="4qr4M3B_KyPkDofaE57d-21" value="evn" style="text;html=1;align=center;verticalAlign=middle;resizable=0;points=[];autosize=1;strokeColor=none;fillColor=none;" vertex="1" parent="4qr4M3B_KyPkDofaE57d-19">
          <mxGeometry x="60" y="25" width="40" height="30" as="geometry" />
        </mxCell>
        <mxCell id="4qr4M3B_KyPkDofaE57d-22" value="Actor" style="shape=umlActor;verticalLabelPosition=bottom;verticalAlign=top;html=1;outlineConnect=0;" vertex="1" parent="1">
          <mxGeometry x="40" y="600" width="30" height="60" as="geometry" />
        </mxCell>
        <mxCell id="4qr4M3B_KyPkDofaE57d-29" value="email notification" style="text;html=1;strokeColor=none;fillColor=none;align=center;verticalAlign=middle;whiteSpace=wrap;rounded=0;" vertex="1" parent="1">
          <mxGeometry x="240" y="600" width="100" height="30" as="geometry" />
        </mxCell>
        <mxCell id="4qr4M3B_KyPkDofaE57d-36" value="deploy in container" style="text;html=1;strokeColor=none;fillColor=none;align=center;verticalAlign=middle;whiteSpace=wrap;rounded=0;" vertex="1" parent="1">
          <mxGeometry x="760" y="300" width="70" height="30" as="geometry" />
        </mxCell>
        <mxCell id="4qr4M3B_KyPkDofaE57d-37" value="deploy in vm" style="text;html=1;strokeColor=none;fillColor=none;align=center;verticalAlign=middle;whiteSpace=wrap;rounded=0;" vertex="1" parent="1">
          <mxGeometry x="480" y="320" width="90" height="30" as="geometry" />
        </mxCell>
        <mxCell id="4qr4M3B_KyPkDofaE57d-39" value="ECS, EKS, Docker setup, Kubernetes" style="text;html=1;strokeColor=none;fillColor=none;align=center;verticalAlign=middle;whiteSpace=wrap;rounded=0;" vertex="1" parent="1">
          <mxGeometry x="480" y="690" width="140" height="50" as="geometry" />
        </mxCell>
      </root>
    </mxGraphModel>
  </diagram>
</mxfile>
